# xmcd CD database file
#
# Track frame offsets:
#	150
#	7204
#	21629
#	33923
#	47591
#	55954
#	73456
#	91523
#	103797
#	119969
#	132528
#	145907
#	163335
#	179599
#	194835
#	213047
#	240362
#
# Disc length: 3451 seconds
#
# Revision: 1
# Processed by: cddbd v1.5PL3 Copyright (c) Steve Scherf et al.
# Submitted via: CDex 1.51
#
DISCID=0b0d7911
DTITLE=Schawkie Roth - Zen Flute of interior time
DYEAR=2000
DGENRE=New Age
TTITLE0=Invocation
TTITLE1=Bird of India
TTITLE2=Pastorale
TTITLE3=Mother Oak
TTITLE4=Worlds Within Bamboo
TTITLE5=Bells
TTITLE6=Inside The Mountain
TTITLE7=Zen Flute
TTITLE8=The Forest Within
TTITLE9=To a Fallen Oak
TTITLE10=Indwelling Presence
TTITLE11=Calling My Love
TTITLE12=Song To Krishna
TTITLE13=Love and Art
TTITLE14=Sphinx
TTITLE15=Your Eyes In My Heart
TTITLE16=Romance For Tenor
EXTD=YEAR: 2000
EXTT0=
EXTT1=
EXTT2=
EXTT3=
EXTT4=
EXTT5=
EXTT6=
EXTT7=
EXTT8=
EXTT9=
EXTT10=
EXTT11=
EXTT12=
EXTT13=
EXTT14=
EXTT15=
EXTT16=
PLAYORDER=
